<svg height="200px" width="200px" version="1.1" id="Layer_1" xmlns="http://www.w3.org/2000/svg" xmlns:xlink="http://www.w3.org/1999/xlink" viewBox="0 0 512.00 512.00" xml:space="preserve" fill="#000000" stroke="#000000" stroke-width="0.00512"><g id="SVGRepo_bgCarrier" stroke-width="0"></g><g id="SVGRepo_tracerCarrier" stroke-linecap="round" stroke-linejoin="round" stroke="#CCCCCC" stroke-width="1.024"></g><g id="SVGRepo_iconCarrier"> <path style="fill:#80cbf9;" d="M0,256c0,141.384,114.615,256,256,256l22.261-256L256,0C114.615,0,0,114.615,0,256z"></path> <path style="fill:#8fd4ff;" d="M256,0v512c141.384,0,256-114.616,256-256S397.384,0,256,0z"></path> <polygon style="fill:#FFFFFF;" points="161.555,114.333 114.333,161.555 208.778,256 114.333,350.445 161.555,397.667 256,303.222 278.261,256 256,208.778 "></polygon> <polygon style="fill:#FFEAC3;" points="397.667,161.555 350.445,114.333 256,208.778 256,303.222 350.445,397.667 397.667,350.445 303.222,256 "></polygon> </g></svg>